<?xml version="1.0" standalone="no"?><!DOCTYPE svg PUBLIC "-//W3C//DTD SVG 1.1//EN" "http://www.w3.org/Graphics/SVG/1.1/DTD/svg11.dtd"><svg stroke-width="0.501" stroke-linejoin="bevel" fill-rule="evenodd" xmlns:xlink="http://www.w3.org/1999/xlink" xmlns="http://www.w3.org/2000/svg" version="1.1" overflow="visible" width="600pt" height="270pt" viewBox="0 0 600 270"><defs><marker id="DefaultArrow2" markerUnits="strokeWidth" viewBox="0 0 1 1" markerWidth="1" markerHeight="1" overflow="visible" orient="auto"><g transform="scale(0.0092592592)"><path d="M -9 54 L -9 -54 L 117 0 z"/></g></marker><marker id="DefaultArrow3" markerUnits="strokeWidth" viewBox="0 0 1 1" markerWidth="1" markerHeight="1" overflow="visible" orient="auto"><g transform="scale(0.0092592592)"><path d="M -27 54 L -9 0 L -27 -54 L 135 0 z"/></g></marker><marker id="DefaultArrow4" markerUnits="strokeWidth" viewBox="0 0 1 1" markerWidth="1" markerHeight="1" overflow="visible" orient="auto"><g transform="scale(0.0092592592)"><path d="M -9,0 L -9,-45 C -9,-51.708 2.808,-56.580 9,-54 L 117,-9 C 120.916,-7.369 126.000,-4.242 126,0 C 126,4.242 120.916,7.369 117,9 L 9,54 C 2.808,56.580 -9,51.708 -9,45 z"/></g></marker><marker id="DefaultArrow5" markerUnits="strokeWidth" viewBox="0 0 1 1" markerWidth="1" markerHeight="1" overflow="visible" orient="auto"><g transform="scale(0.0092592592)"><path d="M -54, 0 C -54,29.807 -29.807,54 0,54 C 29.807,54 54,29.807 54,0 C 54,-29.807 29.807,-54 0,-54 C -29.807,-54 -54,-29.807 -54,0 z"/></g></marker><marker id="DefaultArrow6" markerUnits="strokeWidth" viewBox="0 0 1 1" markerWidth="1" markerHeight="1" overflow="visible" orient="auto"><g transform="scale(0.0092592592)"><path d="M -63,0 L 0,63 L 63,0 L 0,-63 z"/></g></marker><marker id="DefaultArrow7" markerUnits="strokeWidth" viewBox="0 0 1 1" markerWidth="1" markerHeight="1" overflow="visible" orient="auto"><g transform="scale(0.0092592592)"><path d="M 18,-54 L 108,-54 L 63,0 L 108,54 L 18, 54 L -36,0 z"/></g></marker><marker id="DefaultArrow8" markerUnits="strokeWidth" viewBox="0 0 1 1" markerWidth="1" markerHeight="1" overflow="visible" orient="auto"><g transform="scale(0.0092592592)"><path d="M -36,0 L 18,-54 L 54,-54 L 18,-18 L 27,-18 L 63,-54 L 99,-54 L 63,-18 L 72,-18 L 108,-54 L 144,-54 L 90,0 L 144,54 L 108,54 L 72,18 L 63,18 L 99,54 L 63,54 L 27,18 L 18,18 L 54,54 L 18,54 z"/></g></marker><marker id="DefaultArrow9" markerUnits="strokeWidth" viewBox="0 0 1 1" markerWidth="1" markerHeight="1" overflow="visible" orient="auto"><g transform="scale(0.0092592592)"><path d="M 0,45 L -45,0 L 0, -45 L 45, 0 z M 0, 63 L-63, 0 L 0, -63 L 63, 0 z"/></g></marker><filter id="StainedFilter"><feBlend mode="multiply" in2="BackgroundImage" in="SourceGraphic" result="blend"/><feComposite in="blend" in2="SourceAlpha" operator="in" result="comp"/></filter><filter id="BleachFilter"><feBlend mode="screen" in2="BackgroundImage" in="SourceGraphic" result="blend"/><feComposite in="blend" in2="SourceAlpha" operator="in" result="comp"/></filter><filter id="InvertTransparencyBitmapFilter"><feComponentTransfer><feFuncR type="gamma" amplitude="1.055" exponent=".416666666" offset="-0.055"/><feFuncG type="gamma" amplitude="1.055" exponent=".416666666" offset="-0.055"/><feFuncB type="gamma" amplitude="1.055" exponent=".416666666" offset="-0.055"/></feComponentTransfer><feComponentTransfer><feFuncR type="linear" slope="-1" intercept="1"/><feFuncG type="linear" slope="-1" intercept="1"/><feFuncB type="linear" slope="-1" intercept="1"/><feFuncA type="linear" slope="1" intercept="0"/></feComponentTransfer><feComponentTransfer><feFuncR type="gamma" amplitude="1" exponent="2.4" offset="0"/><feFuncG type="gamma" amplitude="1" exponent="2.4" offset="0"/><feFuncB type="gamma" amplitude="1" exponent="2.4" offset="0"/></feComponentTransfer></filter></defs><g id="Document" fill="none" stroke="black" font-family="Times New Roman" font-size="16" transform="scale(1 -1)"><g id="Spread" transform="translate(0 -270)"><g id="Layer 1"><g id="Group" fill-rule="nonzero" stroke="none" stroke-width="0.243" stroke-miterlimit="79.8403193612775"><path d="M 219.922,20.977 C 219.919,20.108 219.736,19.345 219.366,18.692 C 219.004,18.042 218.36,17.51 217.442,17.121 C 216.522,16.733 215.357,16.395 213.922,16.107 C 212.504,15.818 210.648,15.666 208.351,15.636 C 206.237,15.618 204.428,15.739 202.91,15.986 C 201.399,16.242 200.202,16.551 199.331,16.921 C 198.458,17.295 197.84,17.804 197.469,18.451 C 197.099,19.095 196.919,19.857 196.919,20.727 L 196.916,204.197 L 196.637,204.187 L 133.142,19.212 C 132.87,18.448 132.482,17.789 131.973,17.245 C 131.464,16.695 130.735,16.233 129.773,15.839 C 128.805,15.448 127.661,15.163 126.329,14.989 C 124.997,14.81 123.411,14.707 121.573,14.689 C 119.647,14.663 117.994,14.754 116.62,14.963 C 115.241,15.163 114.091,15.448 113.176,15.815 C 112.256,16.183 111.544,16.642 111.038,17.186 C 110.535,17.715 110.185,18.312 110.003,18.96 L 49.259,202.575 L 49.126,202.573 L 49.13,19.107 C 49.126,18.242 48.94,17.474 48.571,16.821 C 48.206,16.163 47.567,15.639 46.644,15.257 C 45.727,14.86 44.532,14.524 43.062,14.233 C 41.592,13.948 39.715,13.795 37.421,13.766 C 35.218,13.745 33.38,13.86 31.907,14.118 C 30.442,14.374 29.269,14.677 28.395,15.057 C 27.525,15.421 26.925,15.936 26.607,16.574 C 26.286,17.23 26.122,17.986 26.122,18.854 L 26.125,212.579 C 26.122,217.134 27.133,220.398 29.151,222.376 C 31.174,224.351 33.424,225.363 35.9,225.38 L 50.227,225.545 C 53.162,225.575 55.738,225.272 57.94,224.651 C 60.147,224.025 62.075,223.016 63.725,221.613 C 65.384,220.231 66.755,218.448 67.86,216.296 C 68.957,214.131 69.925,211.6 70.751,208.675 L 122.403,56.696 L 123.094,56.702 L 176.811,209.343 C 177.82,212.607 178.92,215.387 180.12,217.684 C 181.311,219.97 182.614,221.816 184.043,223.178 C 185.467,224.551 187.046,225.551 188.79,226.166 C 190.531,226.783 192.555,227.105 194.846,227.127 L 209.863,227.29 C 211.237,227.308 212.551,227.069 213.786,226.601 C 215.025,226.125 216.086,225.375 216.957,224.36 C 217.83,223.336 218.548,222.039 219.098,220.469 C 219.648,218.91 219.922,216.981 219.922,214.701 L 219.922,20.977 Z" fill="#000000" marker-start="none" marker-end="none"/><path d="M 247.712,10.739 C 247.714,9.866 247.529,9.133 247.158,8.533 C 246.793,7.942 246.194,7.413 245.371,6.969 C 244.54,6.525 243.397,6.183 241.924,5.957 C 240.456,5.722 238.577,5.595 236.283,5.563 C 234.071,5.545 232.239,5.628 230.768,5.834 C 229.298,6.036 228.13,6.345 227.257,6.769 C 226.38,7.198 225.789,7.704 225.463,8.301 C 225.145,8.895 224.983,9.622 224.983,10.489 L 224.983,157.009 C 224.983,157.768 225.145,158.475 225.465,159.131 C 225.789,159.783 226.383,160.33 227.257,160.775 C 228.133,161.222 229.298,161.569 230.768,161.789 C 232.239,162.022 234.074,162.15 236.283,162.172 C 238.577,162.201 240.456,162.115 241.924,161.915 C 243.397,161.715 244.54,161.401 245.371,160.972 C 246.194,160.55 246.793,160.012 247.158,159.362 C 247.529,158.712 247.712,158.018 247.714,157.257 L 247.712,10.739 Z M 250.332,206.778 C 250.329,200.478 249.314,196.184 247.29,193.886 C 245.278,191.579 241.556,190.402 236.142,190.339 C 230.812,190.276 227.165,191.355 225.189,193.558 C 223.221,195.755 222.227,199.955 222.23,206.143 C 222.23,212.44 223.239,216.728 225.257,219.037 C 227.28,221.339 231.001,222.522 236.412,222.579 C 241.747,222.639 245.394,221.566 247.365,219.361 C 249.337,217.158 250.329,212.961 250.332,206.778 Z" fill="#000000" marker-start="none" marker-end="none"/><path d="M 358.967,43.294 C 358.967,42.419 358.781,41.694 358.415,41.091 C 358.05,40.503 357.45,39.968 356.623,39.526 C 355.8,39.076 354.659,38.738 353.181,38.512 C 351.712,38.274 349.878,38.153 347.67,38.126 C 345.375,38.1 343.496,38.188 342.027,38.388 C 340.557,38.591 339.41,38.897 338.582,39.326 C 337.754,39.753 337.156,40.268 336.792,40.859 C 336.427,41.446 336.24,42.176 336.24,43.044 L 336.24,128.84 C 336.24,137.192 335.69,143.92 334.587,149.007 C 333.487,154.099 331.881,158.475 329.77,162.139 C 327.655,165.807 324.922,168.597 321.57,170.518 C 318.217,172.429 314.335,173.366 309.925,173.315 C 304.238,173.256 298.55,170.812 292.853,165.963 C 287.162,161.136 281.192,154.063 274.951,144.769 L 274.951,42.376 C 274.951,41.506 274.769,40.77 274.395,40.168 C 274.027,39.573 273.433,39.046 272.607,38.603 C 271.78,38.159 270.63,37.824 269.159,37.591 C 267.693,37.353 265.81,37.225 263.516,37.2 C 261.31,37.176 259.472,37.265 258.007,37.464 C 256.535,37.667 255.364,37.979 254.493,38.4 C 253.616,38.835 253.026,39.344 252.699,39.932 C 252.382,40.523 252.22,41.255 252.22,42.126 L 252.22,188.644 C 252.22,189.509 252.359,190.244 252.631,190.838 C 252.912,191.444 253.462,191.993 254.285,192.494 C 255.11,192.988 256.164,193.326 257.452,193.497 C 258.74,193.679 260.443,193.773 262.552,193.799 C 264.566,193.823 266.248,193.758 267.577,193.611 C 268.909,193.468 269.939,193.143 270.673,192.676 C 271.413,192.185 271.939,191.653 272.257,191.062 C 272.583,190.465 272.742,189.732 272.742,188.871 L 272.74,169.491 C 279.721,178.792 286.674,185.629 293.612,189.991 C 300.544,194.352 307.547,196.57 314.614,196.652 C 322.884,196.746 329.839,195.164 335.483,191.917 C 341.126,188.668 345.697,184.3 349.189,178.798 C 352.678,173.294 355.175,166.845 356.694,159.427 C 358.208,152.004 358.967,143.09 358.967,132.666 L 358.967,43.294 Z" fill="#000000" marker-start="none" marker-end="none"/><path d="M 392.272,15.548 C 392.272,14.674 392.089,13.93 391.721,13.336 C 391.356,12.739 390.757,12.215 389.93,11.763 C 389.104,11.322 387.957,10.986 386.483,10.754 C 385.013,10.519 383.137,10.389 380.84,10.377 C 378.637,10.345 376.798,10.425 375.329,10.63 C 373.857,10.833 372.687,11.145 371.813,11.566 C 370.943,11.998 370.349,12.507 370.026,13.095 C 369.711,13.689 369.546,14.418 369.546,15.292 L 369.546,161.809 C 369.546,162.568 369.708,163.275 370.028,163.927 C 370.349,164.586 370.943,165.127 371.817,165.577 C 372.687,166.022 373.857,166.365 375.329,166.595 C 376.798,166.818 378.637,166.948 380.84,166.978 C 383.137,166.995 385.013,166.915 386.487,166.712 C 387.961,166.512 389.104,166.201 389.927,165.774 C 390.757,165.344 391.354,164.816 391.721,164.168 C 392.087,163.518 392.272,162.822 392.272,162.059 L 392.272,15.548 Z M 394.889,211.576 C 394.887,205.278 393.878,200.981 391.86,198.684 C 389.833,196.382 386.118,195.196 380.702,195.135 C 375.372,195.086 371.723,196.155 369.748,198.352 C 367.776,200.561 366.791,204.755 366.787,210.943 C 366.787,217.234 367.796,221.534 369.819,223.833 C 371.837,226.133 375.557,227.322 380.98,227.377 C 386.308,227.436 389.951,226.366 391.93,224.163 C 393.902,221.96 394.887,217.763 394.889,211.576 Z" fill="#000000" marker-start="none" marker-end="none"/><path d="M 466.891,250.527 C 466.891,248.465 466.8,246.8 466.617,245.559 C 466.432,244.303 466.226,243.303 466,242.539 C 465.765,241.783 465.47,241.262 465.104,240.986 C 464.732,240.703 464.277,240.571 463.723,240.559 C 463.085,240.559 462.283,240.792 461.316,241.268 C 460.35,241.75 459.178,242.28 457.804,242.859 C 456.428,243.442 454.791,243.965 452.912,244.43 C 451.031,244.903 448.848,245.121 446.372,245.092 C 442.973,245.056 440.075,244.374 437.689,243.045 C 435.305,241.721 433.379,239.662 431.908,236.871 C 430.437,234.096 429.379,230.508 428.74,226.096 C 428.093,221.689 427.77,216.346 427.776,210.049 L 427.773,194.1 L 455.463,194.402 C 456.195,194.414 456.813,194.232 457.321,193.852 C 457.825,193.48 458.285,192.829 458.699,191.915 C 459.112,190.991 459.435,189.835 459.662,188.42 C 459.889,187.017 460.003,185.283 460.003,183.223 C 460.006,179.309 459.591,176.485 458.765,174.745 C 457.938,172.989 456.838,172.109 455.46,172.094 L 427.773,171.791 L 427.776,43.35 C 427.77,42.482 427.585,41.744 427.22,41.141 C 426.855,40.55 426.238,40.018 425.367,39.576 C 424.496,39.129 423.324,38.797 421.852,38.562 C 420.379,38.324 418.55,38.2 416.345,38.174 C 414.144,38.15 412.303,38.238 410.829,38.441 C 409.366,38.64 408.195,38.956 407.327,39.373 C 406.444,39.8 405.825,40.318 405.462,40.903 C 405.1,41.494 404.912,42.226 404.912,43.097 L 404.909,171.539 L 387.415,171.348 C 385.955,171.336 384.842,172.189 384.107,173.921 C 383.371,175.653 383.01,178.47 383.013,182.376 C 383.01,184.432 383.096,186.173 383.283,187.585 C 383.469,189.002 383.74,190.167 384.107,191.093 C 384.481,192.026 384.936,192.68 385.492,193.068 C 386.046,193.452 386.69,193.649 387.415,193.655 L 404.909,193.844 L 404.909,208.985 C 404.909,219.19 405.712,227.963 407.327,235.308 C 408.926,242.65 411.382,248.674 414.694,253.377 C 417.997,258.076 422.15,261.567 427.155,263.847 C 432.155,266.132 438.061,267.305 444.852,267.385 C 448.065,267.417 451.189,267.1 454.222,266.426 C 457.25,265.753 459.591,265.02 461.247,264.22 C 462.9,263.42 464,262.706 464.547,262.056 C 465.101,261.414 465.56,260.573 465.927,259.562 C 466.292,258.526 466.544,257.285 466.685,255.815 C 466.826,254.356 466.891,252.594 466.891,250.527 Z" fill="#000000" marker-start="none" marker-end="none"/><path d="M 463.688,19.009 C 463.688,18.139 463.5,17.404 463.132,16.804 C 462.768,16.21 462.175,15.686 461.341,15.239 C 460.518,14.795 459.371,14.46 457.898,14.23 C 456.434,13.989 454.551,13.86 452.253,13.842 C 450.051,13.813 448.209,13.901 446.745,14.101 C 445.272,14.307 444.099,14.618 443.233,15.039 C 442.354,15.468 441.764,15.98 441.442,16.568 C 441.119,17.163 440.961,17.889 440.958,18.765 L 440.958,165.283 C 440.958,166.041 441.119,166.741 441.442,167.407 C 441.764,168.053 442.354,168.597 443.233,169.05 C 444.099,169.491 445.275,169.836 446.745,170.063 C 448.212,170.291 450.051,170.418 452.257,170.441 C 454.548,170.465 456.434,170.382 457.898,170.185 C 459.368,169.988 460.515,169.675 461.344,169.245 C 462.171,168.822 462.771,168.285 463.135,167.639 C 463.503,166.989 463.688,166.288 463.685,165.527 L 463.688,19.009 Z M 466.303,215.046 C 466.303,208.755 465.291,204.455 463.272,202.149 C 461.247,199.852 457.533,198.674 452.113,198.611 C 446.788,198.549 443.142,199.623 441.164,201.826 C 439.196,204.031 438.201,208.222 438.201,214.416 C 438.201,220.71 439.21,225.007 441.234,227.308 C 443.248,229.613 446.973,230.795 452.394,230.851 C 457.721,230.908 461.365,229.836 463.345,227.633 C 465.315,225.433 466.303,221.237 466.303,215.046 Z" fill="#000000" marker-start="none" marker-end="none"/><path d="M 567.204,36.668 C 565.916,36.877 564.863,37.162 564.037,37.538 C 563.21,37.9 562.61,38.409 562.24,39.062 C 561.875,39.7 561.692,40.459 561.692,41.329 L 561.692,60.699 C 557.134,54.808 552.458,49.816 547.656,45.726 C 547.334,46.803 546.873,47.95 546.265,49.172 C 544.317,53.064 540.132,57.038 536.421,60.929 C 537.488,61.605 538.568,62.372 539.652,63.231 C 542.594,65.542 545.672,68.533 548.887,72.202 C 552.1,75.871 555.5,80.393 559.075,85.747 L 559.075,144.351 C 558.997,144.466 558.916,144.581 558.837,144.696 C 558.849,154.377 559.684,164.853 559.072,173.007 C 556.134,176.497 557.608,174.806 559.075,173.007 L 559.072,258.144 C 559.084,258.909 559.24,259.644 559.56,260.344 C 559.878,261.059 560.499,261.609 561.416,261.994 C 562.337,262.394 563.507,262.729 564.934,263.011 C 566.354,263.303 568.172,263.459 570.369,263.482 C 572.671,263.503 574.548,263.388 576.021,263.132 C 577.486,262.879 578.633,262.573 579.462,262.197 C 580.286,261.82 580.906,261.285 581.324,260.591 C 581.73,259.894 581.942,259.153 581.942,258.394 L 581.942,41.553 C 581.942,40.682 581.783,39.921 581.456,39.271 C 581.142,38.618 580.583,38.097 579.807,37.7 C 579.024,37.315 577.995,37.006 576.707,36.777 C 575.424,36.538 573.86,36.418 572.024,36.394 C 570.098,36.377 568.49,36.465 567.204,36.668 Z" fill="#000000" marker-start="none" marker-end="none"/><path d="M 494.164,40.203 C 487.796,44.267 482.24,50.679 478.567,57.796 C 474.614,64.793 472.226,72.927 471.123,79.028 C 468.891,89.759 467.667,100.665 467.863,111.5 L 467.879,112.558 C 467.876,125.023 469.082,136.344 471.35,146.416 C 473.629,156.505 476.988,165.103 481.449,172.244 C 485.914,179.397 491.434,184.906 498.031,188.794 C 504.616,192.676 512.239,194.693 520.886,194.787 C 528.065,194.859 534.868,193.641 541.134,189.683 C 562.295,176.318 577.53,156.319 578.083,126.405 L 578.083,115.1 C 578.083,112.773 575.016,110.829 572.58,110.803 L 559.001,110.833 L 491.858,110.833 C 491.858,108.797 492.299,97.812 492.778,94.33 C 493.728,87.345 495.322,81.154 497.693,75.749 C 500.046,70.348 502.496,65.686 506.416,62.449 C 510.325,59.211 515.769,56.729 521.686,56.793 C 524.68,56.823 528.83,57.602 531.609,58.59 C 534.382,59.59 536.977,61.367 539.882,63.655 C 542.794,65.948 549.72,73.428 551.099,74.874 C 555.029,78.943 563.801,62.173 560.216,58.796 C 554.29,51.485 548.603,45.673 542.259,41.391 C 535.303,36.7 526.309,33.485 518.03,33.394 C 509.028,33.294 500.455,36.049 494.164,40.203 Z M 492.122,126.537 L 558.913,127.156 C 558.946,127.528 558.976,127.902 558.999,128.266 C 558.994,130.553 558.972,132.84 558.913,135.122 C 558.044,143.955 554.249,150.339 549.766,156.048 C 549.314,156.536 548.865,157.027 548.416,157.527 C 547.167,159.131 545.829,160.521 544.373,161.721 C 543.103,162.936 541.846,164.057 540.6,165.072 C 534.914,169.682 529.192,171.635 523.007,171.612 C 522.189,171.6 521.042,171.494 520.274,171.425 C 519.93,171.45 514.151,170.327 511.745,168.469 C 507.525,165.927 504.096,162.447 501.246,158.286 C 499.966,156.345 498.972,154.201 497.946,152.036 C 495.843,147.104 494.272,141.928 493.261,135.963 L 492.122,126.537" fill="#ff8200"/></g></g></g></g></svg>
