<?xml version="1.0" encoding="UTF-8" standalone="no"?>
<!-- Created with Inkscape (http://www.inkscape.org/) -->

<svg
   xmlns:svg="http://www.w3.org/2000/svg"
   xmlns="http://www.w3.org/2000/svg"
   xmlns:inkscape="http://www.inkscape.org/namespaces/inkscape"
   version="1.1"
   width="180"
   height="40"
   id="svg2">
  <defs
     id="defs4">
    <inkscape:path-effect
       effect="spiro"
       id="path-effect3613" />
  </defs>
  <g
     transform="translate(-78.324097,-363.74776)"
     id="layer1">
    <path
       d="m 99.875822,400.669 c -0.408709,0.36927 -0.715567,0.80753 -0.867428,1.33677 -0.07907,0.4151 0.154737,0.29499 -0.105992,-0.0848 -0.106635,-0.10831 -0.23269,-0.14726 -0.385577,-0.13783 -0.0537,0.004 -0.104769,0.048 -0.157267,0.0362 -0.03436,-0.008 0.0533,-0.046 0.07992,-0.0689 -0.07037,0.008 -0.0093,-0.12679 -0.01892,-0.1818 0.0016,-1.35141 1.912522,-1.34951 1.911192,0.002 l 0,0 c -0.0153,0.60481 -0.11346,1.15139 -0.550097,1.60616 -0.659388,0.57624 -1.299817,0.7918 -2.101805,0.29005 -0.108795,-0.10702 -0.236442,-0.19778 -0.326392,-0.32106 -0.387168,-0.53068 -0.307786,-1.19984 -0.113067,-1.78173 0.267053,-0.66114 0.665603,-1.23027 1.072461,-1.81134 0.789403,-1.10517 2.35236,0.0113 1.562947,1.11639 z"
       id="path4059"
       style="fill:#000000;fill-opacity:1;stroke-width:16.20000076;stroke-linecap:round;stroke-miterlimit:4;stroke-dasharray:none" />
    <path
       d="m 111.62438,365.17072 c 0.75754,0.36218 1.53456,0.68249 2.30604,1.01425 0.95869,0.44657 1.98283,0.71418 2.99521,1.00623 0.83098,0.26056 1.70319,0.28878 2.55516,0.43077 1.31334,0.13216 2.64151,0.0581 3.95147,-0.0764 1.23865,-0.18448 2.48374,-0.32655 3.7176,-0.54193 0.66798,-0.10467 1.32593,-0.26048 1.98985,-0.38594 0.71786,-0.14963 1.41837,-0.0296 1.81334,0.66197 0.0782,0.13691 0.0974,0.29993 0.14604,0.4499 0.12245,0.68067 0.15923,1.36952 0.20898,2.05797 0.0412,0.8619 0.0311,1.72219 0.0848,2.58351 0.005,0.50147 0.10325,1.00509 0.092,1.50702 -0.0141,0.62968 -0.0891,1.26493 -0.11573,1.89532 -0.03,1.17749 -0.0645,2.35145 -0.1543,3.52614 -0.0306,1.23765 -0.16397,2.46524 -0.29958,3.69484 -0.0771,0.64626 -0.11213,1.30455 -0.22478,1.94636 -0.12276,0.69945 -0.32181,1.39018 -0.46963,2.08499 -0.28037,1.26855 -0.60065,2.52425 -0.85748,3.79834 -0.0583,0.21148 -0.11728,0.42279 -0.17499,0.63443 -0.13171,0.48304 -0.16897,0.68415 -0.35314,1.15577 -0.26744,0.68481 -0.62836,1.32552 -0.98465,1.96627 -0.79827,1.46997 -1.86892,2.75051 -2.95742,4.01007 -0.76301,0.97557 -1.60973,1.87104 -2.58071,2.64008 -0.98414,0.73911 -1.74662,0.62241 -2.89395,0.39603 -1.05746,-0.22692 -0.46936,-0.0998 -1.76399,-0.38287 -0.87634,-0.071 -0.77588,-1.31035 0.10045,-1.23932 l 0,0 c 1.40223,-0.063 0.77194,-0.0709 1.89093,-0.0163 0.5777,0.0383 1.13033,0.0777 1.65459,-0.20726 0.95316,-0.55599 1.75039,-1.35264 2.50035,-2.15221 1.04118,-1.15888 1.97562,-2.40526 2.70161,-3.78894 0.57499,-1.06108 0.96418,-2.20038 1.28107,-3.36366 0.30266,-1.26479 0.58999,-2.53307 0.91137,-3.79346 0.3004,-1.26785 0.51508,-2.55245 0.66499,-3.84703 0.11322,-1.21429 0.10404,-2.43414 0.2286,-3.648 0.0708,-1.16278 0.0914,-2.32701 0.16351,-3.48992 0.055,-1.07035 0.0216,-2.13762 -0.0481,-3.2071 -0.0684,-0.86145 -0.19723,-1.71301 -0.19988,-2.57863 -0.0366,-0.55934 -0.1262,-1.10983 -0.2518,-1.65608 0.31158,0.40712 0.77929,0.15487 0.17505,0.21755 -0.68647,0.0799 -1.36606,0.21191 -2.05918,0.22491 -1.25376,0.10619 -2.51071,0.1686 -3.75881,0.33749 -0.18344,0.0246 -1.35189,0.1833 -1.5515,0.19993 -0.88724,0.0739 -1.78196,0.0345 -2.67067,0.0689 -0.19389,0.007 -0.38782,0.027 -0.58169,0.0197 -0.79947,-0.03 -1.5703,-0.3578 -2.34103,-0.53101 -1.06769,-0.30679 -2.14662,-0.59022 -3.16694,-1.03848 -0.77093,-0.28959 -1.55036,-0.58171 -2.34782,-0.78472 -1.2724,-0.47716 -0.5976,-2.2766 0.6748,-1.79946 z"
       id="path4083"
       style="fill:#000000;fill-opacity:1;stroke-width:16.20000076;stroke-linecap:round;stroke-miterlimit:4;stroke-dasharray:none" />
    <path
       d="m 144.41275,388.40895 c -1.20434,-0.26273 -2.41518,-0.0844 -3.60369,0.15936 -0.93164,0.19482 -1.57173,0.46766 -2.21204,1.15933 -0.57184,0.75079 -0.59163,1.76824 -0.6738,2.67079 -0.1271,1.4279 -0.0296,2.84476 0.42991,4.20476 0.31233,0.83738 0.87565,1.43127 1.67748,1.80251 0.5857,0.12584 1.10175,-0.30995 1.54886,-0.63379 1.40857,-1.17324 2.87241,-2.27998 4.31385,-3.41478 1.3369,-0.94022 2.59001,-1.98325 3.81124,-3.06627 -0.10648,0.0206 0.53945,-0.43584 0.37149,-0.49768 -0.0667,-0.0245 -0.0873,0.14585 -0.11366,0.0816 -0.003,-0.0583 -0.0295,-0.35018 -0.0962,-0.34631 -0.0258,0.002 -0.0166,0.0581 2.9e-4,0.0775 0.14933,0.16999 0.3233,0.31665 0.48494,0.47498 0.41356,-0.13905 0.84653,-0.23003 1.24068,-0.41715 0.0661,-0.0314 0.0491,-0.13791 0.0737,-0.20683 0.0176,-0.0492 -0.0186,0.10295 -0.0284,0.15434 -0.0893,0.46989 -0.044,0.0715 -0.0838,0.62814 -0.0578,1.12034 -0.0433,2.24353 -0.009,3.36476 0.11724,1.33063 0.20159,2.66262 0.29381,3.99486 0.0314,0.40847 0.0554,0.82397 0.16064,1.22226 0.013,0.0491 0.0401,0.19304 0.0515,0.1435 0.15715,-0.68654 -0.97877,-0.67264 -1.36671,-0.82861 -0.0517,0.036 -0.0921,0.1096 -0.15509,0.10797 -0.0619,-0.002 0.0905,-0.0847 0.13211,-0.13059 0.1442,-0.15895 0.29989,-0.29637 0.46239,-0.43591 0.52901,-0.45782 1.03555,-0.93917 1.53079,-1.43349 0.69853,-0.69889 1.50816,-1.26417 2.2646,-1.89504 0.48163,-0.40169 0.95125,-0.81759 1.43066,-1.22191 1.28531,-1.0597 2.48347,-2.20711 3.4857,-3.54048 0.41945,-0.64833 0.88299,-1.42434 1.85196,-0.90597 0.59032,0.3158 0.48445,0.80587 0.49365,1.30571 -0.0436,1.39211 -0.17358,2.77221 -0.40581,4.14509 -0.21278,1.48301 -0.26631,2.98401 -0.25804,4.48051 0.0255,0.39752 -0.0392,0.81083 0.0582,1.20298 0.0116,0.0467 0.11008,0.13886 0.0627,0.13012 -2.01359,-0.37168 -2.122,0.11744 -1.78694,-0.70338 0.18372,-0.84299 0.44158,-1.65347 0.78323,-2.44676 0.0861,-0.159 0.14805,-0.33367 0.25827,-0.47701 0.69564,-0.90462 1.85672,-1.55875 2.84757,-2.09009 0.83497,-0.41341 1.61534,-0.68689 2.4367,-0.0445 0.13633,0.10662 0.23852,0.25082 0.35779,0.37621 0.53653,0.70005 0.8091,1.56388 1.40799,2.22239 0.41542,0.35379 0.60088,0.22637 1.12617,0.13665 0.94917,-0.22924 1.8114,-0.68762 2.69751,-1.07903 2.17908,-0.96255 -0.52795,0.28677 1.66102,-0.73456 0.77114,-0.30747 1.91854,-1.40713 2.74152,-1.45714 0.19244,-0.0117 0.38291,0.0454 0.57435,0.0681 0.19216,0.1498 0.41261,0.26908 0.57644,0.4494 0.10253,0.11286 0.1297,0.27627 0.20388,0.40948 0.23652,0.42471 0.51911,0.74598 0.93132,0.99901 1.06459,0.35304 2.1207,-0.2718 2.98796,-0.83076 1.03752,-0.68421 1.5236,-1.80056 2.14229,-2.82068 0.37397,-0.55266 0.9272,-1.03847 1.63533,-1.06271 0.42307,-0.0145 0.8851,0.12742 1.29129,0.22966 0.97656,0.2414 1.87983,0.68781 2.82258,1.02592 0.73569,0.26385 1.11119,0.36033 1.8643,0.57932 1.28063,0.31789 0.73136,0.20031 2.07129,0.45381 0.47342,0.0896 0.94398,0.19657 1.42084,0.26552 1.84374,0.2666 3.71691,0.32719 5.57467,0.41615 1.44753,0.077 2.89787,0.0602 4.34596,0.11599 0.90895,0.035 1.81574,0.12783 2.72528,0.13977 0.9591,0.0126 1.91789,-0.0432 2.8768,-0.0662 3.32639,-0.0798 2.2089,-0.0497 5.44203,-0.16037 3.1735,-0.22819 6.3572,-0.32563 9.5232,-0.64724 0.72076,-0.0201 0.74909,0.99926 0.0283,1.01929 l 0,0 c -3.18143,-0.14329 -6.36474,-0.23995 -9.54925,-0.27747 -3.92227,0.0554 -1.38478,0.01 -5.44336,0.10742 -0.95901,0.023 -1.91911,0.0165 -2.87711,0.0662 -0.91141,0.0473 -1.81715,0.17965 -2.72867,0.22485 -0.27042,0.0134 -4.03497,0.0304 -4.35535,0.032 -1.88498,0.008 -3.7689,0.009 -5.65379,-0.0104 -0.51044,-0.005 -1.02201,0.0191 -1.53134,-0.0151 -0.6955,-0.0467 -1.54905,-0.2462 -2.23216,-0.38739 -1.55609,-0.43166 -3.10406,-0.88435 -4.68403,-1.22111 -0.47903,-0.0812 -0.77863,-0.20345 -1.13779,0.18104 -0.89311,1.05639 -1.58471,2.32838 -2.8048,3.05807 -0.96788,0.57215 -2.27433,1.31302 -3.4211,1.38328 -0.52564,0.0322 -0.83672,-0.15401 -1.29852,-0.34364 -0.53722,-0.36963 -0.79578,-0.60019 -1.20685,-1.10301 -0.0919,-0.11242 -0.17262,-0.23393 -0.26827,-0.34317 -0.0576,-0.0658 -0.27705,-0.16849 -0.19041,-0.1807 0.12317,-0.0174 0.22473,0.10669 0.33709,0.16004 0.068,-0.0162 0.14989,-0.005 0.20401,-0.0486 0.0237,-0.0194 -0.0215,-0.0746 -0.052,-0.0756 -0.11379,-0.004 -0.22634,0.0313 -0.33574,0.0628 -0.68412,0.19719 -1.3023,0.56633 -1.94962,0.85155 -1.48163,0.73512 -2.94988,1.50064 -4.47204,2.15068 -0.23206,0.0886 -0.45571,0.20357 -0.69617,0.26591 -0.90988,0.23593 -1.73485,-0.19508 -2.30502,-0.88035 -0.49464,-0.672 -0.8411,-1.43684 -1.37648,-2.07956 -0.18743,-0.23609 0.16097,0.0379 0.0309,-0.15887 -0.11385,-0.17228 -0.67229,0.0966 -0.75171,0.0973 -0.90089,0.35656 -1.77228,0.83287 -2.22715,1.73179 -0.0903,0.21173 -0.22997,0.5226 -0.2984,0.74571 -0.1495,0.48749 -0.16658,1.00223 -0.26266,1.5002 -0.13232,0.91492 0.0352,0.40865 -2.02083,0.15812 -0.044,-0.005 0.0572,-0.0705 0.0703,-0.11289 0.0658,-0.21325 0.0767,-0.5341 0.0938,-0.74114 0.0139,-0.16834 0.0279,-0.33668 0.0419,-0.50503 0.1655,-1.51534 0.39151,-3.02339 0.51828,-4.54293 0.0557,-1.27727 0.19227,-2.5715 0.004,-3.84274 -0.162,-0.33084 0.0898,0.20956 0.32239,0.28325 0.24889,0.0789 0.5292,0.0432 0.78307,-0.0179 0.0808,-0.0194 0.21401,-0.16248 0.14236,-0.20451 -0.21275,-0.12481 -0.40136,0.7172 -0.57476,0.46602 -0.54134,0.52819 -1.11265,1.01949 -1.66517,1.5362 -0.48456,0.45315 -0.94764,0.92927 -1.44022,1.37369 -0.2269,0.20473 -0.46852,0.39252 -0.70279,0.58877 -0.30391,0.26651 -1.09427,0.95514 -1.3926,1.23432 -0.68137,0.63765 -1.28008,1.35352 -1.9674,1.98519 -0.48368,0.5631 -0.8974,1.18043 -1.42656,1.70225 -0.25968,0.27352 -0.48472,0.57738 -0.78904,0.8057 -0.50408,-0.15005 -1.05124,-0.197 -1.51224,-0.45016 -0.12466,-0.0684 -0.0656,-0.27833 -0.073,-0.42036 -0.003,-0.0523 0.0325,-0.0997 0.0431,-0.15097 0.0816,-0.39646 0.089,-0.80436 0.0905,-1.20731 -0.0116,-1.33221 -0.11825,-2.66241 -0.20939,-3.99107 -0.066,-1.15229 -0.24072,-2.29202 -0.25713,-3.447 -0.0113,-0.2153 -0.17234,-1.40042 0.0573,-1.54903 0.3887,-0.25157 0.86133,-0.34 1.292,-0.51 0.18412,0.16707 0.38992,0.31299 0.55236,0.50121 0.13619,0.15781 0.25932,1.02352 0.2748,1.23858 -0.0411,0.92723 -0.44917,1.30353 -1.21257,1.76633 -1.39656,0.81835 -2.73901,1.71965 -4.03607,2.68849 -0.83046,0.64069 -1.66508,1.28398 -2.41272,2.02297 -0.21862,0.21608 -0.41239,0.45611 -0.62681,0.67635 -0.11442,0.11751 -0.93999,0.90313 -1.06146,1.01902 -1.12668,0.89047 -1.97485,1.51559 -3.42253,0.85692 -1.07445,-0.69851 -1.98991,-1.62254 -2.33418,-2.89353 -0.38047,-1.54638 -0.472,-3.15449 -0.40979,-4.7431 0.0407,-0.96243 0.0246,-2.03075 0.35129,-2.95198 0.1398,-0.39419 0.33916,-0.59863 0.58852,-0.91701 0.28811,-0.25861 0.43804,-0.41736 0.78258,-0.61865 0.72829,-0.42549 1.58368,-0.59932 2.40014,-0.75501 1.29156,-0.21279 2.58653,-0.40488 3.88239,-0.5795 1.36616,0 1.36616,1.93203 0,1.93203 z"
       id="path4089"
       style="fill:#000000;fill-opacity:1;stroke-width:16.20000076;stroke-linecap:round;stroke-miterlimit:4;stroke-dasharray:none" />
    <path
       d="m 80.329084,365.23292 c 0.113613,0.42603 0.41892,0.7588 0.848757,0.92758 0.780092,0.24244 1.614841,0.24756 2.428306,0.26179 0.199217,0.002 0.398635,-0.002 0.597651,0.007 0.979127,0.0429 0.550996,0.0744 1.587024,0.0821 0.875457,0.006 1.744044,-0.0649 2.613652,-0.14825 0.308433,-0.0332 0.616133,-0.0729 0.925291,-0.0995 0.368841,-0.0317 0.739631,-0.0414 1.108249,-0.0752 1.461848,-0.13413 2.915014,-0.35456 4.365614,-0.56654 1.389395,-0.22159 2.789239,-0.35315 4.180395,-0.56425 0.676363,-0.10651 1.355847,-0.20474 2.042617,-0.21272 0.6849,0.0456 1.37114,0.0249 2.05658,0.007 0.26469,-0.008 0.52944,-0.013 0.79419,-0.0179 1.43762,0.002 1.43499,1.90765 -0.003,1.90591 l 0,0 c -0.26487,-0.006 -0.52974,-0.0115 -0.79452,-0.0201 -0.66919,-0.0198 -1.34035,-0.046 -2.00815,0.0155 -0.6326,0.0202 -1.266323,-0.004 -1.898765,0.0296 -1.396729,0.0608 -2.792716,0.1442 -4.188543,0.21951 -1.454876,0.12749 -2.920103,0.24604 -4.360819,0.48059 -0.374501,0.061 -0.742985,0.15246 -1.118112,0.20992 -0.309452,0.0474 -0.622697,0.0696 -0.934048,0.10442 -1.657373,0.1847 -3.324078,0.2743 -4.991931,0.30513 -0.885577,-0.009 -2.087641,0.0784 -2.933562,-0.13568 -0.142082,-0.036 -0.271587,-0.10636 -0.40738,-0.15955 -0.141977,-0.0776 -0.291404,-0.14426 -0.425932,-0.23274 -0.625817,-0.41161 -1.044368,-1.03207 -1.403461,-1.64879 -0.50899,-1.2724 1.410533,-1.94719 1.919523,-0.67479 z"
       id="path4113"
       style="fill:#000000;fill-opacity:1;stroke-width:16.20000076;stroke-linecap:round;stroke-miterlimit:4;stroke-dasharray:none" />
    <path
       d="m 90.814754,370.35949 c -0.230917,1.16336 -0.179398,2.3666 -0.160413,3.5473 -0.08544,1.38592 -0.03835,2.77454 0.01,4.16074 0.01057,0.93884 0.04452,1.87729 0.09104,2.81501 -0.05242,0.74863 0.01679,1.49753 0.0021,2.24607 0.0021,0.64959 0.0092,1.29904 0.01876,1.94855 -0.05847,0.80933 -0.01088,1.61896 -0.07448,2.42778 -0.07988,1.21968 -0.158702,2.43617 -0.378196,3.6396 -0.259921,1.505 -0.417369,3.02524 -0.64938,4.53418 -0.214333,1.37739 -0.18795,2.77291 -0.268598,4.15983 -1.02e-4,0.8229 -0.102083,1.63644 -0.195418,2.45204 -0.218528,1.30811 -2.068483,0.99907 -1.849951,-0.30906 l 0,0 c 0.162208,-0.7508 0.375108,-1.49114 0.426758,-2.26216 0.127317,-1.41021 0.227691,-2.82279 0.403901,-4.22837 0.150818,-1.51361 0.456623,-3.00227 0.603355,-4.51616 0.04554,-1.15818 0.212407,-2.30866 0.201187,-3.4699 -0.06359,-0.80882 -0.01601,-1.61845 -0.07448,-2.42778 0.0095,-0.64951 0.01667,-1.29896 0.01874,-1.94855 -0.01455,-0.74854 0.0547,-1.49744 0.0023,-2.24607 0.04652,-0.93772 0.0805,-1.87617 0.09104,-2.81501 0.04837,-1.3862 0.09543,-2.77482 0.01,-4.16074 0.01898,-1.1807 0.0705,-2.38394 -0.160418,-3.5473 0,-1.36615 1.932024,-1.36615 1.932024,0 z"
       id="path4115"
       style="fill:#000000;fill-opacity:1;stroke-width:16.20000076;stroke-linecap:round;stroke-miterlimit:4;stroke-dasharray:none" />
  </g>
</svg>
